<?xml version="1.0" standalone="no"?>
 <!DOCTYPE svg PUBLIC "-//W3C//DTD SVG 1.1//EN" 
 "http://www.w3.org/Graphics/SVG/1.1/DTD/svg11.dtd"> 
<svg
  xmlns:svg="http://www.w3.org/2000/svg"
  xmlns="http://www.w3.org/2000/svg"
  xmlns:xlink="http://www.w3.org/1999/xlink"
  version="1.1"
  width="297.0022mm" height="210.0072mm" viewBox="0.0000 0.0000 297.0022 210.0072">
<title>SVG Image created as Chonkofly19-Edge_Cuts.svg date 2025/07/22 22:38:23 </title>
  <desc>Image generated by PCBNEW </desc>
<g style="fill:#000000; fill-opacity:1.0000;stroke:#000000; stroke-opacity:1.0000;
stroke-linecap:round; stroke-linejoin:round;"
 transform="translate(0 0) scale(1 1)">
</g>
<g style="fill:none; 
stroke:#000000; stroke-width:0.0500; stroke-opacity:1; 
stroke-linecap:round; stroke-linejoin:round;">
<path d="M209.4640 181.2630 A4.7625 4.7625 0.0 0 0 213.4232 173.8535" />
<path d="M271.3820 135.1041
L213.4232 173.8535
" />
<path d="M22.3002 101.1914
L72.9475 130.0965
" />
<path d="M142.9610 181.2630 A4.7625 4.7625 0.0 0 0 147.7235 176.5005" />
<path d="M204.7015 176.5005 A4.7625 4.7625 0.0 0 0 209.4640 181.2630" />
<path d="M161.1251 25.9332 A4.7625 4.7625 0.0 0 0 152.4209 28.1297" />
<path d="M79.2433 16.4947 A4.7625 4.7625 0.0 0 0 74.5034 20.7936" />
<path d="M317.8543 21.6426 A4.7625 4.7625 0.0 0 0 316.8641 12.2217" />
<path d="M275.3412 137.2197 A4.7625 4.7625 0.0 0 0 279.4775 130.0965" />
<path d="M339.0236 98.8307 A4.7625 4.7625 0.0 0 0 333.2709 94.1723" />
<path d="M74.5035 20.7936
L40.3008 17.4478
" />
<path d="M330.1248 101.1914
L279.4775 130.0965
" />
<path d="M40.3008 17.4479 A4.7625 4.7625 0.0 1 0 30.7984 16.9842" />
<path d="M204.7015 176.5005
L147.7235 176.5005
" />
<path d="M30.7984 16.9842 A4.7625 4.7625 0.0 0 0 34.5707 21.6427" />
<path d="M19.1541 94.1723 A4.7625 4.7625 0.0 1 0 18.1639 103.5932" />
<path d="M72.9476 130.0966 A4.7625 4.7625 0.0 0 0 77.0838 137.2197" />
<path d="M271.3820 135.1041 A4.7625 4.7625 0.0 0 0 275.3412 137.2197" />
<path d="M152.4209 28.1297
L83.9850 21.7020
" />
<path d="M18.1639 103.5933 A4.7625 4.7625 0.0 0 0 22.3002 101.1914" />
<path d="M277.9216 20.7936 A4.7625 4.7625 0.0 0 0 273.1817 16.4947" />
<path d="M83.9849 21.7025 A4.7625 4.7625 0.0 0 0 79.2433 16.4947" />
<path d="M77.0838 137.2197 A4.7625 4.7625 0.0 0 0 81.0430 135.1041" />
<path d="M191.2999 25.9332
L161.1251 25.9332
" />
<path d="M268.4400 21.7025
L200.0041 28.1297
" />
<path d="M330.1248 101.1914 A4.7625 4.7625 0.0 0 0 339.0236 98.8307" />
<path d="M139.0018 173.8535 A4.7625 4.7625 0.0 0 0 142.9610 181.2630" />
<path d="M273.1817 16.4947 A4.7625 4.7625 0.0 0 0 268.4400 21.7025" />
<path d="M317.8543 21.6426
L333.2709 94.1723
" />
<path d="M200.0041 28.1297 A4.7625 4.7625 0.0 0 0 191.2999 25.9332" />
<path d="M139.0018 173.8535
L81.0430 135.1041
" />
<path d="M34.5707 21.6427
L19.1541 94.1723
" />
<path d="M316.8641 12.2217 A4.7625 4.7625 0.0 0 0 312.1242 17.4479" />
<path d="M312.1242 17.4479
L277.9216 20.7935
" />
<path style="fill:none; 
stroke:#000000; stroke-width:0.0500; stroke-opacity:1; 
stroke-linecap:round; stroke-linejoin:round;fill:none"
d="M 267.1145,128.3013
253.6568,132.1602
249.7979,118.7025
263.2556,114.8436
Z" /> 
<path style="fill:none; 
stroke:#000000; stroke-width:0.0500; stroke-opacity:1; 
stroke-linecap:round; stroke-linejoin:round;fill:none"
d="M 248.6683,134.0573
236.3071,140.6299
229.7345,128.2686
242.0957,121.6960
Z" /> 
<path style="fill:none; 
stroke:#000000; stroke-width:0.0500; stroke-opacity:1; 
stroke-linecap:round; stroke-linejoin:round;fill:none"
d="M 231.8220,143.5227
221.0974,152.5217
212.0984,141.7971
222.8230,132.7981
Z" /> 
<path style="fill:none; 
stroke:#000000; stroke-width:0.0500; stroke-opacity:1; 
stroke-linecap:round; stroke-linejoin:round;fill:none"
d="M 217.3118,156.2838
208.6925,167.3160
197.6604,158.6967
206.2796,147.6646
Z" /> 
<path style="fill:none; 
stroke:#000000; stroke-width:0.0500; stroke-opacity:1; 
stroke-linecap:round; stroke-linejoin:round;fill:none"
d="M 219.5769,128.9296
208.8523,137.9286
199.8532,127.2040
210.5779,118.2050
Z" /> 
<path style="fill:none; 
stroke:#000000; stroke-width:0.0500; stroke-opacity:1; 
stroke-linecap:round; stroke-linejoin:round;fill:none"
d="M 202.3002,144.5555
193.6809,155.5876
182.6488,146.9684
191.2680,135.9362
Z" /> 
<path style="fill:none; 
stroke:#000000; stroke-width:0.0500; stroke-opacity:1; 
stroke-linecap:round; stroke-linejoin:round;fill:none"
d="M 169.7762,146.9684
158.7441,155.5876
150.1248,144.5555
161.1570,135.9362
Z" /> 
<path style="fill:none; 
stroke:#000000; stroke-width:0.0500; stroke-opacity:1; 
stroke-linecap:round; stroke-linejoin:round;fill:none"
d="M 152.5718,127.2040
143.5727,137.9286
132.8481,128.9296
141.8471,118.2050
Z" /> 
<path style="fill:none; 
stroke:#000000; stroke-width:0.0500; stroke-opacity:1; 
stroke-linecap:round; stroke-linejoin:round;fill:none"
d="M 154.7646,158.6967
143.7325,167.3160
135.1132,156.2838
146.1454,147.6646
Z" /> 
<path style="fill:none; 
stroke:#000000; stroke-width:0.0500; stroke-opacity:1; 
stroke-linecap:round; stroke-linejoin:round;fill:none"
d="M 140.3266,141.7971
131.3276,152.5217
120.6030,143.5227
129.6020,132.7981
Z" /> 
<path style="fill:none; 
stroke:#000000; stroke-width:0.0500; stroke-opacity:1; 
stroke-linecap:round; stroke-linejoin:round;fill:none"
d="M 122.6905,128.2686
116.1179,140.6299
103.7567,134.0573
110.3293,121.6960
Z" /> 
<path style="fill:none; 
stroke:#000000; stroke-width:0.0500; stroke-opacity:1; 
stroke-linecap:round; stroke-linejoin:round;fill:none"
d="M 102.6271,118.7025
98.7682,132.1602
85.3105,128.3013
89.1694,114.8436
Z" /> 
<path style="fill:none; 
stroke:#000000; stroke-width:0.0500; stroke-opacity:1; 
stroke-linecap:round; stroke-linejoin:round;fill:none"
d="M 326.3443,94.1111
312.6503,97.0219
309.7395,83.3278
323.4336,80.4170
Z" /> 
<path style="fill:none; 
stroke:#000000; stroke-width:0.0500; stroke-opacity:1; 
stroke-linecap:round; stroke-linejoin:round;fill:none"
d="M 307.7106,98.0718
294.0166,100.9826
291.1058,87.2885
304.7999,84.3778
Z" /> 
<path style="fill:none; 
stroke:#000000; stroke-width:0.0500; stroke-opacity:1; 
stroke-linecap:round; stroke-linejoin:round;fill:none"
d="M 288.0189,97.5349
274.5613,101.3938
270.7023,87.9361
284.1600,84.0772
Z" /> 
<path style="fill:none; 
stroke:#000000; stroke-width:0.0500; stroke-opacity:1; 
stroke-linecap:round; stroke-linejoin:round;fill:none"
d="M 268.3942,98.2078
254.9365,102.0667
251.0776,88.6090
264.5352,84.7501
Z" /> 
<path style="fill:none; 
stroke:#000000; stroke-width:0.0500; stroke-opacity:1; 
stroke-linecap:round; stroke-linejoin:round;fill:none"
d="M 251.3948,108.0367
237.9372,111.8956
234.0783,98.4379
247.5359,94.5790
Z" /> 
<path style="fill:none; 
stroke:#000000; stroke-width:0.0500; stroke-opacity:1; 
stroke-linecap:round; stroke-linejoin:round;fill:none"
d="M 234.3955,117.8656
220.9379,121.7245
217.0789,108.2668
230.5366,104.4079
Z" /> 
<path style="fill:none; 
stroke:#000000; stroke-width:0.0500; stroke-opacity:1; 
stroke-linecap:round; stroke-linejoin:round;fill:none"
d="M 322.3836,75.4774
308.6896,78.3882
305.7788,64.6941
319.4729,61.7833
Z" /> 
<path style="fill:none; 
stroke:#000000; stroke-width:0.0500; stroke-opacity:1; 
stroke-linecap:round; stroke-linejoin:round;fill:none"
d="M 303.7499,79.4381
290.0558,82.3489
287.1451,68.6548
300.8391,65.7440
Z" /> 
<path style="fill:none; 
stroke:#000000; stroke-width:0.0500; stroke-opacity:1; 
stroke-linecap:round; stroke-linejoin:round;fill:none"
d="M 282.7680,79.2229
269.3104,83.0818
265.4514,69.6241
278.9091,65.7652
Z" /> 
<path style="fill:none; 
stroke:#000000; stroke-width:0.0500; stroke-opacity:1; 
stroke-linecap:round; stroke-linejoin:round;fill:none"
d="M 263.1433,79.8957
249.6856,83.7547
245.8267,70.2970
259.2843,66.4381
Z" /> 
<path style="fill:none; 
stroke:#000000; stroke-width:0.0500; stroke-opacity:1; 
stroke-linecap:round; stroke-linejoin:round;fill:none"
d="M 246.1440,89.7246
232.6863,93.5836
228.8274,80.1259
242.2850,76.2670
Z" /> 
<path style="fill:none; 
stroke:#000000; stroke-width:0.0500; stroke-opacity:1; 
stroke-linecap:round; stroke-linejoin:round;fill:none"
d="M 229.1446,99.5535
215.6870,103.4125
211.8281,89.9548
225.2857,86.0959
Z" /> 
<path style="fill:none; 
stroke:#000000; stroke-width:0.0500; stroke-opacity:1; 
stroke-linecap:round; stroke-linejoin:round;fill:none"
d="M 318.4229,56.8437
304.7288,59.7544
301.8181,46.0604
315.5121,43.1496
Z" /> 
<path style="fill:none; 
stroke:#000000; stroke-width:0.0500; stroke-opacity:1; 
stroke-linecap:round; stroke-linejoin:round;fill:none"
d="M 299.7892,60.8044
286.0951,63.7152
283.1844,50.0211
296.8784,47.1103
Z" /> 
<path style="fill:none; 
stroke:#000000; stroke-width:0.0500; stroke-opacity:1; 
stroke-linecap:round; stroke-linejoin:round;fill:none"
d="M 277.5171,60.9108
264.0595,64.7697
260.2005,51.3121
273.6582,47.4532
Z" /> 
<path style="fill:none; 
stroke:#000000; stroke-width:0.0500; stroke-opacity:1; 
stroke-linecap:round; stroke-linejoin:round;fill:none"
d="M 257.8924,61.5837
244.4347,65.4426
240.5758,51.9850
254.0335,48.1260
Z" /> 
<path style="fill:none; 
stroke:#000000; stroke-width:0.0500; stroke-opacity:1; 
stroke-linecap:round; stroke-linejoin:round;fill:none"
d="M 240.8931,71.4126
227.4354,75.2715
223.5765,61.8139
237.0341,57.9549
Z" /> 
<path style="fill:none; 
stroke:#000000; stroke-width:0.0500; stroke-opacity:1; 
stroke-linecap:round; stroke-linejoin:round;fill:none"
d="M 223.8938,81.2415
210.4361,85.1004
206.5772,71.6428
220.0348,67.7838
Z" /> 
<path style="fill:none; 
stroke:#000000; stroke-width:0.0500; stroke-opacity:1; 
stroke-linecap:round; stroke-linejoin:round;fill:none"
d="M 314.4622,38.2100
300.7681,41.1207
297.8574,27.4267
311.5514,24.5159
Z" /> 
<path style="fill:none; 
stroke:#000000; stroke-width:0.0500; stroke-opacity:1; 
stroke-linecap:round; stroke-linejoin:round;fill:none"
d="M 295.8285,42.1707
282.1344,45.0814
279.2236,31.3874
292.9177,28.4766
Z" /> 
<path style="fill:none; 
stroke:#000000; stroke-width:0.0500; stroke-opacity:1; 
stroke-linecap:round; stroke-linejoin:round;fill:none"
d="M 272.2662,42.5988
258.8086,46.4577
254.9497,33.0000
268.4073,29.1411
Z" /> 
<path style="fill:none; 
stroke:#000000; stroke-width:0.0500; stroke-opacity:1; 
stroke-linecap:round; stroke-linejoin:round;fill:none"
d="M 252.6415,43.2717
239.1838,47.1306
235.3249,33.6729
248.7826,29.8140
Z" /> 
<path style="fill:none; 
stroke:#000000; stroke-width:0.0500; stroke-opacity:1; 
stroke-linecap:round; stroke-linejoin:round;fill:none"
d="M 235.6422,53.1006
222.1845,56.9595
218.3256,43.5018
231.7832,39.6429
Z" /> 
<path style="fill:none; 
stroke:#000000; stroke-width:0.0500; stroke-opacity:1; 
stroke-linecap:round; stroke-linejoin:round;fill:none"
d="M 218.6429,62.9295
205.1852,66.7884
201.3263,53.3307
214.7839,49.4718
Z" /> 
<path style="fill:none; 
stroke:#000000; stroke-width:0.0500; stroke-opacity:1; 
stroke-linecap:round; stroke-linejoin:round;fill:none"
d="M 135.3461,108.2668
131.4871,121.7245
118.0295,117.8656
121.8884,104.4079
Z" /> 
<path style="fill:none; 
stroke:#000000; stroke-width:0.0500; stroke-opacity:1; 
stroke-linecap:round; stroke-linejoin:round;fill:none"
d="M 118.3467,98.4379
114.4878,111.8956
101.0302,108.0367
104.8891,94.5790
Z" /> 
<path style="fill:none; 
stroke:#000000; stroke-width:0.0500; stroke-opacity:1; 
stroke-linecap:round; stroke-linejoin:round;fill:none"
d="M 101.3474,88.6090
97.4885,102.0667
84.0308,98.2078
87.8898,84.7501
Z" /> 
<path style="fill:none; 
stroke:#000000; stroke-width:0.0500; stroke-opacity:1; 
stroke-linecap:round; stroke-linejoin:round;fill:none"
d="M 81.7227,87.9361
77.8637,101.3938
64.4061,97.5349
68.2650,84.0772
Z" /> 
<path style="fill:none; 
stroke:#000000; stroke-width:0.0500; stroke-opacity:1; 
stroke-linecap:round; stroke-linejoin:round;fill:none"
d="M 61.3192,87.2885
58.4084,100.9826
44.7144,98.0718
47.6251,84.3778
Z" /> 
<path style="fill:none; 
stroke:#000000; stroke-width:0.0500; stroke-opacity:1; 
stroke-linecap:round; stroke-linejoin:round;fill:none"
d="M 42.6855,83.3278
39.7747,97.0219
26.0807,94.1111
28.9914,80.4170
Z" /> 
<path style="fill:none; 
stroke:#000000; stroke-width:0.0500; stroke-opacity:1; 
stroke-linecap:round; stroke-linejoin:round;fill:none"
d="M 140.5969,89.9548
136.7380,103.4125
123.2804,99.5535
127.1393,86.0959
Z" /> 
<path style="fill:none; 
stroke:#000000; stroke-width:0.0500; stroke-opacity:1; 
stroke-linecap:round; stroke-linejoin:round;fill:none"
d="M 123.5976,80.1259
119.7387,93.5836
106.2810,89.7246
110.1400,76.2670
Z" /> 
<path style="fill:none; 
stroke:#000000; stroke-width:0.0500; stroke-opacity:1; 
stroke-linecap:round; stroke-linejoin:round;fill:none"
d="M 106.5983,70.2970
102.7394,83.7547
89.2817,79.8957
93.1407,66.4381
Z" /> 
<path style="fill:none; 
stroke:#000000; stroke-width:0.0500; stroke-opacity:1; 
stroke-linecap:round; stroke-linejoin:round;fill:none"
d="M 86.9736,69.6241
83.1146,83.0818
69.6570,79.2229
73.5159,65.7652
Z" /> 
<path style="fill:none; 
stroke:#000000; stroke-width:0.0500; stroke-opacity:1; 
stroke-linecap:round; stroke-linejoin:round;fill:none"
d="M 65.2799,68.6548
62.3692,82.3489
48.6751,79.4381
51.5859,65.7440
Z" /> 
<path style="fill:none; 
stroke:#000000; stroke-width:0.0500; stroke-opacity:1; 
stroke-linecap:round; stroke-linejoin:round;fill:none"
d="M 46.6462,64.6941
43.7354,78.3882
30.0414,75.4774
32.9521,61.7833
Z" /> 
<path style="fill:none; 
stroke:#000000; stroke-width:0.0500; stroke-opacity:1; 
stroke-linecap:round; stroke-linejoin:round;fill:none"
d="M 145.8478,71.6428
141.9889,85.1004
128.5312,81.2415
132.3902,67.7838
Z" /> 
<path style="fill:none; 
stroke:#000000; stroke-width:0.0500; stroke-opacity:1; 
stroke-linecap:round; stroke-linejoin:round;fill:none"
d="M 128.8485,61.8139
124.9896,75.2715
111.5319,71.4126
115.3909,57.9549
Z" /> 
<path style="fill:none; 
stroke:#000000; stroke-width:0.0500; stroke-opacity:1; 
stroke-linecap:round; stroke-linejoin:round;fill:none"
d="M 111.8492,51.9850
107.9903,65.4426
94.5326,61.5837
98.3915,48.1260
Z" /> 
<path style="fill:none; 
stroke:#000000; stroke-width:0.0500; stroke-opacity:1; 
stroke-linecap:round; stroke-linejoin:round;fill:none"
d="M 92.2245,51.3121
88.3655,64.7697
74.9079,60.9108
78.7668,47.4532
Z" /> 
<path style="fill:none; 
stroke:#000000; stroke-width:0.0500; stroke-opacity:1; 
stroke-linecap:round; stroke-linejoin:round;fill:none"
d="M 69.2406,50.0211
66.3299,63.7152
52.6358,60.8044
55.5466,47.1103
Z" /> 
<path style="fill:none; 
stroke:#000000; stroke-width:0.0500; stroke-opacity:1; 
stroke-linecap:round; stroke-linejoin:round;fill:none"
d="M 50.6069,46.0604
47.6962,59.7544
34.0021,56.8437
36.9129,43.1496
Z" /> 
<path style="fill:none; 
stroke:#000000; stroke-width:0.0500; stroke-opacity:1; 
stroke-linecap:round; stroke-linejoin:round;fill:none"
d="M 151.0987,53.3307
147.2398,66.7884
133.7821,62.9295
137.6411,49.4718
Z" /> 
<path style="fill:none; 
stroke:#000000; stroke-width:0.0500; stroke-opacity:1; 
stroke-linecap:round; stroke-linejoin:round;fill:none"
d="M 134.0994,43.5018
130.2405,56.9595
116.7828,53.1006
120.6418,39.6429
Z" /> 
<path style="fill:none; 
stroke:#000000; stroke-width:0.0500; stroke-opacity:1; 
stroke-linecap:round; stroke-linejoin:round;fill:none"
d="M 117.1001,33.6729
113.2412,47.1306
99.7835,43.2717
103.6424,29.8140
Z" /> 
<path style="fill:none; 
stroke:#000000; stroke-width:0.0500; stroke-opacity:1; 
stroke-linecap:round; stroke-linejoin:round;fill:none"
d="M 97.4753,33.0000
93.6164,46.4577
80.1588,42.5988
84.0177,29.1411
Z" /> 
<path style="fill:none; 
stroke:#000000; stroke-width:0.0500; stroke-opacity:1; 
stroke-linecap:round; stroke-linejoin:round;fill:none"
d="M 73.2014,31.3874
70.2906,45.0814
56.5965,42.1707
59.5073,28.4766
Z" /> 
<path style="fill:none; 
stroke:#000000; stroke-width:0.0500; stroke-opacity:1; 
stroke-linecap:round; stroke-linejoin:round;fill:none"
d="M 54.5676,27.4267
51.6569,41.1207
37.9628,38.2100
40.8736,24.5159
Z" /> 
</g> 
</svg>
